<svg version="1.1" xmlns="http://www.w3.org/2000/svg" xmlns:xlink="http://www.w3.org/1999/xlink" width="130.23533" height="130.23533" viewBox="0,0,130.23533,130.23533"><g transform="translate(-174.88233,-114.88233)"><g data-paper-data="{&quot;isPaintingLayer&quot;:true}" fill-rule="nonzero" stroke="none" stroke-linecap="butt" stroke-linejoin="miter" stroke-miterlimit="10" stroke-dasharray="" stroke-dashoffset="0" style="mix-blend-mode: normal"><path d="M174.88234,245.11767v-130.23533h130.23533v130.23533z" fill="#ff8383" stroke-width="0"/><path d="M200.40283,141.74597c0.27533,2.48479 -2.20946,2.76012 -2.20946,2.76012l-0.94656,0.10366c-1.74943,0.24804 -6.80604,1.08684 -8.16447,0.62109c-1.9058,-0.65342 -4.00113,-1.7187 -4.91891,-3.51222c-1.51656,-2.96366 1.5849,-10.73304 4.2874,-12.4396c1.50893,-0.95285 3.46627,-0.85095 5.1994,-1.27643c0,0 2.44666,-0.51369 2.96034,1.93297c0.51369,2.44666 -1.93297,2.96034 -1.93297,2.96034c-1.14881,0.1796 -2.42357,-0.01418 -3.44643,0.5388c-0.82449,0.44574 -2.84931,5.29248 -2.53827,6.16642c0.69839,1.96227 6.66835,0.22765 7.84868,0.05862l1.10112,-0.12323c0,0 2.48479,-0.27533 2.76012,2.20946z" fill="#ffffff" stroke-width="0.5"/><path d="M222.98534,146.53419c-2.47078,0.38113 -2.85191,-2.08964 -2.85191,-2.08964l-0.39361,-2.66382c-0.32766,-1.03053 -0.15232,-2.39925 -0.98299,-3.09159c-0.88988,-0.74169 -2.27102,-0.49409 -3.42603,-0.58322c-1.02012,-0.07872 -2.12891,-0.36031 -3.10005,-0.09759l-1.60932,2.49657c-0.44132,0.70855 -1.22738,1.18013 -2.12359,1.18013c-1.35699,0 -2.46146,-1.08115 -2.49901,-2.42906l-0.1132,-3.49972c-0.10293,-2.56786 -0.32632,-5.13014 -0.56003,-7.68941c0,0 -0.22695,-2.48968 2.26272,-2.71663c2.48968,-0.22695 2.71663,2.26272 2.71663,2.26272c0.17364,1.90812 0.34057,3.81789 0.46076,5.7302c3.34089,-0.71947 9.29584,-0.06705 11.25436,1.55772c1.56471,1.29807 1.69233,3.69721 2.53849,5.54581l0.51643,3.23564c0,0 0.38113,2.47078 -2.08964,2.85191z" fill="#ffffff" stroke-width="0.5"/><path d="M245.53466,145.90525c-0.48042,2.45341 -2.93382,1.97299 -2.93382,1.97299l-0.82437,-0.20014c-4.80491,-0.09052 -11.159,1.40548 -13.19018,-4.98234c-1.17362,-3.69089 4.75045,-8.54954 7.00614,-10.34765c1.44505,-1.15191 2.80109,-3.22431 4.63937,-3.03512c5.76177,0.59299 4.62469,5.58861 2.8013,8.30938c-1.95934,2.92362 -5.56268,4.00498 -8.81185,4.7114c2.02584,1.03013 7.09482,0.33479 7.64929,0.34521l1.69114,0.29244c0,0 2.45341,0.48042 1.97299,2.93382z" fill="#ffffff" stroke-width="0.5"/><path d="M266.72693,147.24556c0.78864,2.37235 -1.58371,3.16099 -1.58371,3.16099l-2.49508,0.69492c-4.58355,-0.04716 -11.12229,-0.454 -13.26872,-5.72488c-1.38743,-3.40703 2.32593,-11.45649 6.16236,-12.05983c6.79142,-1.06806 7.73081,1.15053 4.79321,6.4475c-0.90694,1.63537 -3.73997,3.45347 -5.67903,4.69206c1.87458,1.91233 5.90893,1.67205 7.99218,1.64516l0.91779,-0.43962c0,0 2.37235,-0.78864 3.16099,1.58371z" fill="#ffffff" stroke-width="0.5"/><path d="M287.86438,147.52511c-0.85231,2.35023 -3.20254,1.49792 -3.20254,1.49792l-2.63601,-0.96032c-0.99044,-0.49333 -5.80205,-2.71158 -6.35785,-3.74283c-0.02384,-0.04424 -0.04764,-0.08885 -0.07138,-0.1338l0.33174,2.23279c0,0 0.36738,2.47286 -2.10548,2.84024c-2.47286,0.36738 -2.84024,-2.10548 -2.84024,-2.10548l-0.45291,-3.04887c-0.77121,-4.85666 -1.00442,-9.91552 -1.38701,-14.82467c0,0 -0.19225,-2.4926 2.30035,-2.68485c2.4926,-0.19225 2.68485,2.30035 2.68485,2.30035c0.24034,3.15145 0.41463,6.37552 0.72534,9.56074c0.77383,-1.12147 2.70988,-1.15952 4.04707,-1.67181c2.07899,-0.79649 4.46213,-0.7205 6.66651,-0.40862c0,0 2.46877,0.39393 2.07483,2.8627c-0.39393,2.46877 -2.8627,2.07483 -2.8627,2.07483c-1.74892,-0.32586 -3.28431,0.35126 -4.80083,0.13689c0.43729,0.2033 0.8592,0.44062 1.29119,0.65549c0.90989,0.45259 1.81843,0.90789 2.72765,1.36184l2.36949,0.85493c0,0 2.35023,0.85231 1.49792,3.20254z" fill="#ffffff" stroke-width="0.5"/><path d="M290.59509,157.50129c-2.20618,-1.17591 -1.03026,-3.38209 -1.03026,-3.38209l0.91987,-1.71524c1.01123,-2.22079 1.89312,-4.44868 2.71692,-6.69835c-1.25529,-0.92587 -2.47894,-1.89583 -3.68974,-2.87865c0,0 -1.94019,-1.5766 -0.36359,-3.51679c1.5766,-1.94019 3.51679,-0.36359 3.51679,-0.36359c0.74993,0.6101 1.50489,1.21536 2.2705,1.80649c0.24109,-0.7103 0.48158,-1.42373 0.7236,-2.14072c0,0 0.79955,-2.3687 3.16825,-1.56914c2.3687,0.79955 1.56914,3.16825 1.56914,3.16825c-0.36025,1.06726 -0.71801,2.12689 -1.07944,3.18027c0.45127,0.22766 2.07277,1.20826 1.25091,3.20967c-0.72188,1.75793 -2.23132,1.63083 -2.91387,1.46873c-0.79918,2.14809 -1.6535,4.27829 -2.61767,6.4029l-1.05932,1.99801c0,0 -1.17591,2.20618 -3.38209,1.03026z" fill="#ffffff" stroke-width="0.5"/><path d="M233.53504,177.18971c1.70332,1.82994 -0.12662,3.53327 -0.12662,3.53327l-1.82009,1.6879c-6.39692,5.22987 -10.78448,13.10696 -15.7326,19.68067c-0.74386,0.98824 -5.65618,8.55462 -8.6244,6.38143c-0.7128,-0.52188 -1.51389,-7.5262 -1.79745,-9.79707c-0.00594,-7.08134 0.82049,-14.09257 0.90544,-21.16754c0.02974,-2.47681 -0.09511,-4.95307 -0.15199,-7.42941c-0.02881,-1.25454 -0.07557,-2.51217 -0.00622,-3.76493c-2.29086,3.18125 -2.92678,6.49272 -4.64677,10.14933c-0.49412,1.05046 -3.87753,6.71703 -4.16149,7.38316c-2.55896,6.00302 -4.37175,12.58573 -6.66927,18.72633c0,0 -0.87607,2.34148 -3.21754,1.46541c-2.34148,-0.87607 -1.46541,-3.21754 -1.46541,-3.21754c2.32286,-6.20835 4.1574,-12.87128 6.75419,-18.9384c1.7985,-4.20202 4.38745,-7.72135 6.06253,-12.02361c1.45984,-3.74946 1.97994,-8.03754 7.38187,-8.9053c5.5657,-0.89407 4.77087,6.66829 4.95917,8.82676c0.83074,9.5226 -0.74542,19.06295 -0.75423,28.58421c0.09174,0.72911 0.23379,1.41299 0.30157,2.07125c0.38888,-0.43688 0.78017,-0.87269 1.12538,-1.33793c0.98232,-1.32387 1.91535,-2.68361 2.87375,-4.02491c4.08976,-5.72369 8.25573,-12.01913 13.68422,-16.52099l1.59268,-1.48872c0,0 1.82994,-1.70332 3.53327,0.12662z" fill="#ffffff" stroke-width="0.5"/><path d="M250.55153,207.61517c1.1156,2.23728 -1.12168,3.35288 -1.12168,3.35288l-2.68563,1.31705c-2.07075,1.78972 -4.48498,3.20868 -6.99498,4.3c-4.85303,2.11005 -14.13186,3.46882 -15.39231,-3.97161c-0.34208,-2.01932 0.77572,-4.02662 1.32476,-5.99974c1.04623,-3.75984 2.68895,-9.00975 5.03145,-12.14334c1.01669,-1.36005 2.52833,-2.2733 3.69205,-3.50989c0.95956,-1.01966 1.2758,-3.07804 2.66583,-3.24616c4.55869,-0.55137 7.21717,4.30192 7.00759,7.97287c-0.08654,1.51585 -1.53384,2.62152 -2.34669,3.90393c-1.98995,3.13945 -4.12647,5.22567 -7.3533,7.02456c0,0 -1.99699,1.08628 -3.21822,-0.71718c-0.23951,0.78025 -0.47306,1.53203 -0.71254,2.22642c-0.53527,1.55207 -2.05011,4.50996 -0.45635,4.90413c5.01508,1.24034 10.44016,-1.82496 13.97724,-4.90292l3.22991,-1.63268c0,0 2.23728,-1.1156 3.35288,1.12168zM232.43052,201.98103c2.37312,-1.36299 3.47343,-2.9906 5.1744,-5.21262c0.47268,-0.61747 1.34785,-1.01062 1.52119,-1.76868c0.14419,-0.63059 -0.51989,-1.18836 -0.70318,-1.80872c-0.062,-0.20984 -0.00246,-0.87358 -0.02503,-0.65594c-0.20927,2.01783 -2.39865,3.27295 -3.64128,4.87648c-0.9684,1.24964 -1.70508,2.86696 -2.32609,4.56948z" fill="#ffffff" stroke-width="0.5"/><path d="M290.7575,205.79123c1.91845,1.60298 0.31547,3.52143 0.31547,3.52143l-0.85765,0.97365c-3.85811,3.31601 -12.02651,13.85276 -17.66012,7.09175c-1.00281,-1.2035 0.29318,-3.12047 0.51204,-4.67164c0.52064,-3.69006 0.86222,-4.49386 2.53945,-8.3073c0.1737,-0.39493 0.35731,-0.78542 0.54827,-1.17244c-0.68896,0.50081 -1.41499,0.98035 -1.91102,1.43898c-3.22868,2.98522 -6.1919,6.55512 -10.15557,8.61803l-4.0906,2.81963c-0.40802,0.28948 -0.90663,0.45965 -1.44499,0.45965c-1.38071,0 -2.5,-1.11929 -2.5,-2.5c0,-0.12252 0.00881,-0.24298 0.02584,-0.36079l0.44986,-3.47701l0.08654,0.0112l-0.03191,-0.29937c2.19807,-5.84453 4.15314,-11.41004 7.17079,-16.92771c0,0 1.19966,-2.19335 3.39302,-0.99369c2.19335,1.19966 0.99369,3.39302 0.99369,3.39302c-2.28839,4.1835 -3.90912,8.38694 -5.55898,12.73117c0.7184,-0.44009 1.48628,-0.82318 2.13539,-1.35335c3.42523,-2.79761 6.27606,-6.81813 9.96761,-9.27241c1.38761,-0.92254 3.00536,-2.73303 4.54184,-2.08821c1.91632,0.80423 3.02419,3.27325 3.21332,5.34286c0.18139,1.98496 -1.48264,3.7005 -2.21761,5.55328c-0.96468,2.43187 -1.31713,5.0779 -2.28309,7.50926c-0.18128,0.45628 -0.86302,0.56078 -1.08057,1.00093c-0.12802,0.25901 0.54396,-0.21377 0.77636,-0.38544c1.03038,-0.76113 2.02308,-1.57334 2.99889,-2.40329c1.24069,-1.05524 2.42421,-2.176 3.64836,-3.25039c0.8834,-0.77533 1.78268,-1.53236 2.67402,-2.29854l0.27994,-0.38782c0,0 1.60298,-1.91845 3.52143,-0.31547z" fill="#ffffff" stroke-width="0.5"/><path d="M274.98467,231.81948c1.64373,-1.88366 3.52738,-0.23993 3.52738,-0.23993l1.10694,0.986c0.51336,0.56338 2.59877,3.16456 3.79448,3.65448c2.51262,1.02949 8.60568,-1.42726 8.3741,-4.64999c-0.13284,-1.84864 -2.47654,-2.76082 -3.63329,-4.20893c-2.16654,-2.71226 -5.6204,-5.98504 -2.04863,-9.93033c1.18886,-1.31318 3.3774,-1.23453 5.14652,-1.32436c1.07363,-0.05451 2.06346,0.60392 3.09519,0.90589c0,0 2.38291,0.75614 1.62677,3.13905c-0.75614,2.38291 -3.13905,1.62677 -3.13905,1.62677c-1.0213,-0.36485 -2.19663,-1.41706 -3.13441,-0.87233c-0.23682,0.13756 0.00792,0.58083 0.16559,0.80477c0.61675,0.87593 1.3932,1.62799 2.10871,2.42528c0.93363,1.04034 2.04238,1.93793 2.83822,3.0871c2.32654,3.35945 3.10465,5.60352 0.19712,9.57143c-2.45594,3.35163 -9.31913,5.58633 -13.31101,4.12263c-2.38824,-0.87569 -4.1382,-3.215 -5.76148,-4.96782l-0.71322,-0.60232c0,0 -1.88366,-1.64373 -0.23993,-3.52738z" fill="#ffffff" stroke-width="0.5"/></g></g></svg>